<svg xmlns="http://www.w3.org/2000/svg" viewBox="0 0 32 32">
  <defs>
    <linearGradient id="g" x1="0%" y1="0%" x2="100%" y2="100%">
      <stop offset="0%" stop-color="#22c55e"/>
      <stop offset="50%" stop-color="#059669"/>
      <stop offset="100%" stop-color="#0d9488"/>
    </linearGradient>
  </defs>
  <rect width="32" height="32" rx="8" fill="url(#g)"/>
  <circle cx="16" cy="16" r="9" fill="none" stroke="white" stroke-width="1.5"/>
  <polygon points="16,9.5 18.2,11.2 17.4,13.8 14.6,13.8 13.8,11.2" fill="white" opacity="0.9"/>
  <line x1="16" y1="7" x2="16" y2="9.5" stroke="white" stroke-width="1" stroke-linecap="round"/>
  <line x1="18.2" y1="11.2" x2="21" y2="10" stroke="white" stroke-width="1" stroke-linecap="round"/>
  <line x1="17.4" y1="13.8" x2="19.5" y2="16" stroke="white" stroke-width="1" stroke-linecap="round"/>
  <line x1="14.6" y1="13.8" x2="12.5" y2="16" stroke="white" stroke-width="1" stroke-linecap="round"/>
  <line x1="13.8" y1="11.2" x2="11" y2="10" stroke="white" stroke-width="1" stroke-linecap="round"/>
  <polygon points="16,22.5 13.8,20.8 14.6,18.2 17.4,18.2 18.2,20.8" fill="white" opacity="0.9"/>
  <line x1="16" y1="25" x2="16" y2="22.5" stroke="white" stroke-width="1" stroke-linecap="round"/>
  <line x1="13.8" y1="20.8" x2="11" y2="22" stroke="white" stroke-width="1" stroke-linecap="round"/>
  <line x1="18.2" y1="20.8" x2="21" y2="22" stroke="white" stroke-width="1" stroke-linecap="round"/>
</svg>
